<?xml version="1.0" encoding="UTF-8"?>
<svg width="420px" height="69px" viewBox="0 0 420 69" version="1.1" xmlns="http://www.w3.org/2000/svg" xmlns:xlink="http://www.w3.org/1999/xlink">
    <title>0EA76E3C-2908-43A6-9089-A7AAC13CCEE0</title>
    <g id="Page-1" stroke="none" stroke-width="1" fill="none" fill-rule="evenodd">
        <g id="1---HOME-desktop--2" transform="translate(-510.000000, -156.000000)" fill="#5EA2BA">
            <g id="Group-34" transform="translate(510.000000, 156.000000)">
                <path d="M98.4417984,45.8037504 L101.687942,36.4495104 L101.79431,36.4495104 L105.040262,45.8037504 L98.4417984,45.8037504 Z M91.8778944,52.7539584 C91.8778944,53.9547264 92.8311744,54.6952704 93.8885184,54.6952704 C94.8070464,54.6952704 95.5473984,54.1676544 95.8643904,53.2489344 L97.1369664,49.5078144 L106.312838,49.5078144 L107.617862,53.2489344 C107.934662,54.1676544 108.67751,54.6952704 109.593734,54.6952704 C110.653382,54.6952704 111.60647,53.9547264 111.60647,52.7539584 C111.60647,52.4717184 111.534662,52.1894784 111.46535,51.9788544 L104.54759,32.7083904 C104.01767,31.2276864 103.205702,30.3462144 101.759558,30.3462144 C100.313606,30.3462144 99.5361984,31.2276864 99.0062784,32.7083904 L92.0190144,51.9788544 C91.9497024,52.1894784 91.8778944,52.4717184 91.8778944,52.7539584 L91.8778944,52.7539584 Z" id="Fill-1"></path>
                <path d="M125.650483,41.0746368 L120.534835,41.0746368 C120.393715,41.0746368 120.322099,41.0028288 120.322099,40.8619008 L120.322099,34.4736768 C120.322099,34.3327488 120.393715,34.2609408 120.534835,34.2609408 L125.650483,34.2609408 C127.839091,34.2609408 129.322291,35.6028288 129.322291,37.6852608 C129.322291,39.7327488 127.839091,41.0746368 125.650483,41.0746368 M131.404531,54.6951168 C132.640051,54.6951168 133.414963,53.8136448 133.414963,52.7192448 C133.414963,52.2958848 133.308787,51.8377728 133.098163,51.4489728 L129.181171,44.1426048 C131.756275,43.0505088 133.449715,40.7205888 133.449715,37.6852608 C133.449715,33.4510848 130.203763,30.5219328 125.791603,30.5219328 L118.029427,30.5219328 C116.863027,30.5219328 116.157619,31.2624768 116.157619,32.3914368 L116.157619,52.5065088 C116.157619,53.8482048 117.041395,54.6951168 118.239667,54.6951168 C119.475379,54.6951168 120.322099,53.8482048 120.322099,52.5065088 L120.322099,45.0263808 C120.322099,44.8852608 120.393715,44.8157568 120.534835,44.8157568 L125.016499,44.8157568 L129.357043,53.3902848 C129.814963,54.3065088 130.520755,54.6951168 131.404531,54.6951168" id="Fill-3"></path>
                <path d="M143.826547,45.8037504 L147.072499,36.4495104 L147.179059,36.4495104 L150.425011,45.8037504 L143.826547,45.8037504 Z M137.262643,52.7539584 C137.262643,53.9547264 138.213619,54.6952704 139.273267,54.6952704 C140.189491,54.6952704 140.932147,54.1676544 141.249139,53.2489344 L142.519219,49.5078144 L151.695283,49.5078144 L153.000115,53.2489344 C153.319411,54.1676544 154.059955,54.6952704 154.978483,54.6952704 C156.035827,54.6952704 156.989107,53.9547264 156.989107,52.7539584 C156.989107,52.4717184 156.919411,52.1894784 156.847795,51.9788544 L149.930035,32.7083904 C149.402419,31.2276864 148.590451,30.3462144 147.142195,30.3462144 C145.695859,30.3462144 144.918451,31.2276864 144.391027,32.7083904 L137.401459,51.9788544 C137.332147,52.1894784 137.262643,52.4717184 137.262643,52.7539584 L137.262643,52.7539584 Z" id="Fill-5"></path>
                <path d="M161.505178,49.1562624 C162.74089,52.9321344 165.81097,54.9080064 170.012698,54.9080064 C174.174874,54.9080064 177.210394,52.8255744 178.445722,49.0128384 C178.903834,47.6361984 179.082202,45.6255744 179.082202,43.6844544 L179.082202,43.0134144 C179.082202,41.9560704 178.445722,41.3199744 177.386266,41.3199744 L171.98857,41.3199744 C170.859418,41.3199744 170.151322,42.0626304 170.151322,43.0852224 C170.151322,44.1078144 170.859418,44.8504704 171.98857,44.8504704 L174.739354,44.8504704 C174.880474,44.8504704 174.952282,44.9199744 174.952282,45.0610944 C174.952282,46.1205504 174.845722,47.2844544 174.563674,48.1311744 C173.927194,50.0722944 172.270618,51.1668864 170.047258,51.1668864 C167.61097,51.1668864 166.165018,49.9661184 165.52873,47.9902464 C165.211738,46.9676544 165.070618,45.7319424 165.070618,42.5205504 C165.070618,39.3093504 165.211738,38.0738304 165.52873,37.0512384 C166.165018,35.0728704 167.576218,33.8744064 170.012698,33.8744064 C171.916762,33.8744064 173.29321,34.5454464 174.281242,36.0261504 C174.845722,36.8035584 175.410394,37.0859904 176.115994,37.0859904 C177.175642,37.0859904 178.022362,36.3085824 178.022362,35.2141824 C178.022362,34.7560704 177.881242,34.3674624 177.668506,33.9809664 C176.46985,31.7228544 173.751322,30.1332864 170.012698,30.1332864 C165.81097,30.1332864 162.74089,32.1091584 161.505178,35.8850304 C160.977754,37.6157184 160.83433,39.0269184 160.83433,42.5205504 C160.83433,46.0143744 160.977754,47.4255744 161.505178,49.1562624" id="Fill-7"></path>
                <path d="M191.821114,25.5106368 C191.504122,25.8992448 191.325946,26.3226048 191.325946,26.7807168 C191.325946,27.5930688 191.996986,28.2268608 192.774394,28.2268608 C193.304314,28.2268608 193.692922,28.0139328 194.113786,27.5558208 L196.196218,25.3347648 C196.550266,24.9461568 196.691386,24.5573568 196.691386,24.0992448 C196.691386,23.1807168 195.94873,22.5814848 195.101818,22.5814848 C194.574394,22.5814848 194.185594,22.8266688 193.868602,23.1807168 L191.821114,25.5106368 Z M197.855098,42.5206848 C197.855098,45.7318848 197.713978,47.0023488 197.362234,48.0249408 C196.726138,49.9660608 195.314746,51.1668288 192.950266,51.1668288 C190.620346,51.1668288 189.209146,49.9660608 188.572666,48.0249408 C188.221114,47.0023488 188.079994,45.7318848 188.079994,42.5206848 C188.079994,39.3092928 188.221114,38.0392128 188.572666,37.0141248 C189.209146,35.0753088 190.620346,33.8745408 192.950266,33.8745408 C195.314746,33.8745408 196.726138,35.0753088 197.362234,37.0141248 C197.713978,38.0392128 197.855098,39.3092928 197.855098,42.5206848 L197.855098,42.5206848 Z M183.84601,42.5206848 C183.84601,46.0143168 183.986938,47.4257088 184.55161,49.1562048 C185.78713,52.9320768 188.820346,54.9079488 192.950266,54.9079488 C197.114746,54.9079488 200.150266,52.9320768 201.385786,49.1562048 C201.950266,47.4257088 202.091386,46.0143168 202.091386,42.5206848 C202.091386,39.0268608 201.950266,37.6156608 201.385786,35.8849728 C200.150266,32.1091008 197.114746,30.1332288 192.950266,30.1332288 C188.820346,30.1332288 185.78713,32.1091008 184.55161,35.8849728 C183.986938,37.6156608 183.84601,39.0268608 183.84601,42.5206848 L183.84601,42.5206848 Z" id="Fill-9"></path>
                <path d="M207.560986,52.6499328 C207.560986,53.9547648 208.372954,54.6951168 209.502106,54.6951168 C210.596506,54.6951168 211.408474,53.9547648 211.408474,52.6499328 L211.408474,37.6852608 L211.547482,37.6852608 L220.334554,52.6499328 C221.111962,53.9895168 221.88937,54.6951168 223.125082,54.6951168 C224.536282,54.6951168 225.452506,53.7441408 225.452506,52.1916288 L225.452506,32.3914368 C225.452506,31.0864128 224.64265,30.3437568 223.548442,30.3437568 C222.41929,30.3437568 221.60713,31.0864128 221.60713,32.3914368 L221.60713,47.3563008 L221.500762,47.3563008 L212.678746,32.3914368 C211.901338,31.0518528 211.124122,30.3437568 209.925466,30.3437568 C208.477018,30.3437568 207.560986,31.2970368 207.560986,32.8495488 L207.560986,52.6499328 Z" id="Fill-11"></path>
                <path d="M256.332922,42.5206272 C256.332922,46.4030592 256.05049,47.9555712 255.731194,48.9086592 C254.849722,51.5555712 252.908602,52.9667712 249.94489,52.9667712 C246.944122,52.9667712 245.00281,51.5555712 244.121338,48.9086592 C243.804346,47.9555712 243.522106,46.4030592 243.522106,42.5206272 C243.522106,38.6381952 243.804346,37.0858752 244.121338,36.1325952 C245.00281,33.4856832 246.944122,32.0744832 249.94489,32.0744832 C252.908602,32.0744832 254.849722,33.4856832 255.731194,36.1325952 C256.05049,37.0858752 256.332922,38.6381952 256.332922,42.5206272 M249.94489,54.8733312 C253.82713,54.8733312 256.508602,53.0015232 257.672506,49.4731392 C258.095866,48.2030592 258.378106,46.6482432 258.378106,42.5206272 C258.378106,38.3907072 258.095866,36.8381952 257.672506,35.5681152 C256.508602,32.0397312 253.82713,30.1679232 249.94489,30.1679232 C246.027706,30.1679232 243.344122,32.0397312 242.180218,35.5681152 C241.756858,36.8381952 241.474426,38.3907072 241.474426,42.5206272 C241.474426,46.6482432 241.756858,48.2030592 242.180218,49.4731392 C243.344122,53.0015232 246.027706,54.8733312 249.94489,54.8733312" id="Fill-13"></path>
                <path d="M273.164794,42.2037504 L267.096058,42.2037504 C266.954746,42.2037504 266.88313,42.1319424 266.88313,41.9908224 L266.88313,32.6390784 C266.88313,32.4977664 266.954746,32.4261504 267.096058,32.4261504 L273.164794,32.4261504 C276.695482,32.4261504 278.599546,34.2609024 278.599546,37.3334784 C278.599546,40.4035584 276.695482,42.2037504 273.164794,42.2037504 M265.860538,54.6605184 C266.462074,54.6605184 266.88313,54.2717184 266.88313,53.5661184 L266.88313,44.3205504 C266.88313,44.1796224 266.954746,44.1078144 267.096058,44.1078144 L273.23641,44.1078144 C277.78969,44.1078144 280.612474,41.5327104 280.612474,37.3334784 C280.612474,33.1317504 277.78969,30.5218944 273.23641,30.5218944 L265.825786,30.5218944 C265.22425,30.5218944 264.872698,30.8736384 264.872698,31.4751744 L264.872698,53.5661184 C264.872698,54.2717184 265.296058,54.6605184 265.860538,54.6605184" id="Fill-15"></path>
                <path d="M286.398912,53.5660608 C286.398912,54.1675968 286.78752,54.5193408 287.386944,54.5193408 L299.952384,54.5193408 C300.620928,54.5193408 300.974976,54.1305408 300.974976,53.5660608 C300.974976,53.0015808 300.620928,52.6127808 299.952384,52.6127808 L288.622272,52.6127808 C288.481152,52.6127808 288.411648,52.5434688 288.411648,52.4021568 L288.411648,43.5085248 C288.411648,43.3674048 288.481152,43.2980928 288.622272,43.2980928 L298.293312,43.2980928 C298.964352,43.2980928 299.315904,42.9092928 299.315904,42.3448128 C299.315904,41.7803328 298.964352,41.3915328 298.293312,41.3915328 L288.622272,41.3915328 C288.481152,41.3915328 288.411648,41.3199168 288.411648,41.1786048 L288.411648,32.6390208 C288.411648,32.4979008 288.481152,32.4260928 288.622272,32.4260928 L299.952384,32.4260928 C300.620928,32.4260928 300.974976,32.0397888 300.974976,31.4751168 C300.974976,30.9106368 300.620928,30.5220288 299.952384,30.5220288 L287.386944,30.5220288 C286.78752,30.5220288 286.398912,30.8737728 286.398912,31.4751168 L286.398912,53.5660608 Z" id="Fill-17"></path>
                <path d="M306.902419,53.5660608 C306.902419,54.2718528 307.328275,54.6604608 307.890451,54.6604608 C308.491987,54.6604608 308.915347,54.2718528 308.915347,53.5660608 L308.915347,34.4019648 L309.056659,34.4019648 L320.525203,53.5660608 C320.985811,54.3087168 321.337555,54.6604608 322.008403,54.6604608 C322.785811,54.6604608 323.243731,54.2021568 323.243731,53.3901888 L323.243731,31.4751168 C323.243731,30.7672128 322.820371,30.3809088 322.221139,30.3809088 C321.619603,30.3809088 321.230995,30.7672128 321.230995,31.4751168 L321.230995,50.6021568 L321.124435,50.6021568 L309.586387,31.4751168 C309.162835,30.7324608 308.808979,30.3809088 308.138131,30.3809088 C307.328275,30.3809088 306.902419,30.8390208 306.902419,31.6509888 L306.902419,53.5660608 Z" id="Fill-19"></path>
                <path d="M343.217606,52.4022528 L343.217606,32.6389248 C343.217606,32.4978048 343.28711,32.4261888 343.42823,32.4261888 L348.226694,32.4261888 C351.826886,32.4261888 353.733446,33.6269568 354.721094,36.6254208 C355.181702,38.0738688 355.357574,39.4505088 355.357574,42.5205888 C355.357574,45.5908608 355.181702,46.9675008 354.721094,48.4136448 C353.733446,51.4142208 351.826886,52.6128768 348.226694,52.6128768 L343.42823,52.6128768 C343.28711,52.6128768 343.217606,52.5433728 343.217606,52.4022528 L343.217606,52.4022528 Z M341.20487,53.5661568 C341.20487,54.1675008 341.593478,54.5192448 342.19271,54.5192448 L348.511238,54.5192448 C352.921094,54.5192448 355.533446,52.5781248 356.662214,49.0844928 C357.192134,47.4256128 357.368006,45.9796608 357.368006,42.5205888 C357.368006,39.0619008 357.192134,37.6155648 356.662214,35.9568768 C355.533446,32.4630528 352.921094,30.5219328 348.511238,30.5219328 L342.19271,30.5219328 C341.593478,30.5219328 341.20487,30.8736768 341.20487,31.4752128 L341.20487,53.5661568 Z" id="Fill-21"></path>
                <path d="M366.615725,46.3311936 L371.131949,33.7680576 L371.238317,33.7680576 L375.719981,46.3311936 L366.615725,46.3311936 Z M361.955885,53.7420096 C361.955885,54.3087936 362.379437,54.6605376 362.909165,54.6605376 C363.402029,54.6605376 363.721325,54.4128576 363.897197,53.9547456 L365.942381,48.2723136 L376.390829,48.2723136 L378.436205,53.9547456 C378.614381,54.4128576 378.931373,54.6605376 379.426541,54.6605376 C379.953965,54.6605376 380.377325,54.3087936 380.377325,53.7420096 C380.377325,53.6030016 380.342573,53.4620736 380.307821,53.3555136 L372.474029,31.4383296 C372.226349,30.7325376 371.837549,30.3809856 371.201453,30.3809856 C370.567469,30.3809856 370.178861,30.7325376 369.931181,31.4383296 L362.027693,53.3555136 C361.990637,53.4620736 361.955885,53.6030016 361.955885,53.7420096 L361.955885,53.7420096 Z" id="Fill-23"></path>
                <path d="M390.828173,54.6604992 C391.429709,54.6604992 391.850765,54.2718912 391.850765,53.5660992 L391.850765,32.6390592 C391.850765,32.4977472 391.922573,32.4261312 392.063693,32.4261312 L398.417165,32.4261312 C399.088013,32.4261312 399.439757,32.0398272 399.439757,31.4751552 C399.439757,30.9083712 399.088013,30.5218752 398.417165,30.5218752 L383.276429,30.5218752 C382.605389,30.5218752 382.253837,30.9083712 382.253837,31.4751552 C382.253837,32.0398272 382.605389,32.4261312 383.276429,32.4261312 L389.629709,32.4261312 C389.770829,32.4261312 389.840141,32.4977472 389.840141,32.6390592 L389.840141,53.5660992 C389.840141,54.2718912 390.263693,54.6604992 390.828173,54.6604992" id="Fill-25"></path>
                <path d="M405.973306,46.3311936 L410.48953,33.7680576 L410.59609,33.7680576 L415.080058,46.3311936 L405.973306,46.3311936 Z M401.315962,53.7420096 C401.315962,54.3087936 401.739322,54.6605376 402.266938,54.6605376 C402.761914,54.6605376 403.079098,54.4128576 403.257274,53.9547456 L405.302458,48.2723136 L415.748602,48.2723136 L417.79609,53.9547456 C417.971962,54.4128576 418.291258,54.6605376 418.784122,54.6605376 C419.31385,54.6605376 419.737402,54.3087936 419.737402,53.7420096 C419.737402,53.6030016 419.70265,53.4620736 419.667898,53.3555136 L411.83161,31.4383296 C411.584122,30.7325376 411.197626,30.3809856 410.561338,30.3809856 C409.927546,30.3809856 409.538746,30.7325376 409.291066,31.4383296 L401.385274,53.3555136 C401.350714,53.4620736 401.315962,53.6030016 401.315962,53.7420096 L401.315962,53.7420096 Z" id="Fill-27"></path>
                <path d="M39.2422272,45.8037504 L42.4883712,36.4495104 L42.5947392,36.4495104 L45.8408832,45.8037504 L39.2422272,45.8037504 Z M32.6783232,52.7539584 C32.6783232,53.9547264 33.6316032,54.6952704 34.6889472,54.6952704 C35.6074752,54.6952704 36.3478272,54.1676544 36.6671232,53.2489344 L37.9348992,49.5078144 L47.1132672,49.5078144 L48.4182912,53.2489344 C48.7350912,54.1676544 49.4779392,54.6952704 50.3941632,54.6952704 C51.4538112,54.6952704 52.4045952,53.9547264 52.4045952,52.7539584 C52.4045952,52.4717184 52.3352832,52.1894784 52.2657792,51.9788544 L45.3480192,32.7083904 C44.8182912,31.2276864 44.0061312,30.3462144 42.5599872,30.3462144 C41.1117312,30.3462144 40.3366272,31.2276864 39.8067072,32.7083904 L32.8194432,51.9788544 C32.7478272,52.1894784 32.6783232,52.4717184 32.6783232,52.7539584 L32.6783232,52.7539584 Z" id="Fill-30"></path>
                <path d="M20.346624,64.734144 L64.73184,64.734144 L64.73184,20.346432 L20.346624,20.346432 L20.346624,64.734144 Z M17.417472,67.67712 C17.12832,67.399488 16.938624,66.99456 16.93152,66.464832 L16.93152,19.344768 L0.530112,2.945472 C-1.077888,1.335168 1.33536,-1.07808 2.945472,0.52992 L19.344768,16.93152 L90.34176,16.93152 C92.618304,16.93152 92.618304,20.346432 90.34176,20.346432 L68.146752,20.346432 L68.146752,66.439296 C68.146752,66.971328 67.961664,67.380864 67.674816,67.663296 C67.39488,67.952448 66.992256,68.142144 66.464832,68.146752 L18.639168,68.146752 C18.109248,68.146752 17.702016,67.961472 17.417472,67.67712 L17.417472,67.67712 Z" id="Fill-32"></path>
            </g>
        </g>
    </g>
</svg>